<svg xmlns="http://www.w3.org/2000/svg" width="1em" height="1em" viewBox="0 0 484.975 484.975"><g fill="#eee"><path d="M462.419 165.912H22.556S0 165.912 0 127.625s22.556-38.287 22.556-38.287h439.863s22.556 0 22.556 38.287-22.556 38.287-22.556 38.287zM462.419 280.776H22.556S0 280.776 0 242.488 22.556 204.2 22.556 204.2h439.863s22.556 0 22.556 38.287c0 38.289-22.556 38.289-22.556 38.289zM462.419 395.637H22.556S0 395.637 0 357.351c0-38.288 22.556-38.288 22.556-38.288h439.863s22.556 0 22.556 38.288c0 38.286-22.556 38.286-22.556 38.286z"/></g></svg>